<svg xmlns="http://www.w3.org/2000/svg" width="250" height="180" viewBox="0 0 250 180"><rect width="100%" height="100%" fill="#DDDDDD"/><path fill="#999999" d="M56.715 90.365h4.62q1.7 0 2.97-.42 1.26-.43 2.1-1.22.84-.8 1.26-1.93.41-1.14.41-2.55 0-1.33-.41-2.41-.42-1.08-1.25-1.84-.82-.76-2.09-1.16-1.26-.4-2.99-.4h-4.62zm-6.19-16.72h10.81q3.34 0 5.77.78 2.44.79 4.03 2.19t2.36 3.36q.77 1.95.77 4.27 0 2.42-.81 4.43-.8 2.02-2.41 3.46-1.61 1.45-4.04 2.26-2.43.8-5.67.8h-4.62v11.71h-6.19zm32.59 11.09.35 2.67q1.1-2.12 2.62-3.33t3.59-1.21q1.63 0 2.62.72l-.37 4.25q-.11.42-.33.59t-.59.17q-.34 0-1.02-.11-.68-.12-1.32-.12-.95 0-1.68.28-.74.27-1.33.79-.58.52-1.03 1.26-.45.73-.84 1.67v14.54h-5.68v-23.6h3.33q.88 0 1.22.31.35.31.46 1.12m22.59-1.8q2.62 0 4.77.86 2.15.85 3.68 2.41t2.36 3.82q.83 2.25.83 5.03 0 2.81-.83 5.06-.83 2.26-2.36 3.85-1.53 1.58-3.68 2.43t-4.77.85q-2.65 0-4.81-.85t-3.69-2.43q-1.53-1.59-2.37-3.85-.84-2.25-.84-5.06 0-2.78.84-5.03.84-2.26 2.37-3.82t3.69-2.41q2.16-.86 4.81-.86m0 19.94q2.94 0 4.36-1.97 1.41-1.98 1.41-5.8t-1.41-5.82q-1.42-2-4.36-2-2.99 0-4.43 2.01-1.44 2.02-1.44 5.81 0 3.8 1.44 5.79 1.44 1.98 4.43 1.98m30.8-2.96v-10.58q-.97-1.18-2.11-1.66t-2.45-.48q-1.29 0-2.32.48-1.04.48-1.77 1.46-.74.98-1.13 2.49-.39 1.5-.39 3.55 0 2.07.33 3.51.34 1.43.96 2.34t1.52 1.31q.89.41 2 .41 1.77 0 3.01-.74 1.24-.73 2.35-2.09m0-27.19h5.68v34.18h-3.48q-1.12 0-1.42-1.03l-.49-2.28q-1.42 1.63-3.27 2.64t-4.32 1.01q-1.93 0-3.54-.8t-2.77-2.33-1.79-3.79q-.64-2.25-.64-5.15 0-2.62.72-4.88.71-2.25 2.04-3.91 1.34-1.65 3.2-2.58 1.86-.94 4.19-.94 1.98 0 3.38.63 1.4.62 2.51 1.68zm25.94 10.58h5.68v23.6h-3.47q-1.13 0-1.43-1.03l-.39-1.89q-1.45 1.47-3.2 2.38-1.74.91-4.11.91-1.94 0-3.42-.66-1.48-.65-2.49-1.85-1.02-1.19-1.53-2.84-.52-1.64-.52-3.62v-15h5.68v15q0 2.16 1 3.34 1 1.19 3 1.19 1.47 0 2.76-.66 1.29-.65 2.44-1.8zm11.48 0h5.7v23.6h-5.7zm6.48-6.87q0 .73-.3 1.38-.3.64-.79 1.12-.49.49-1.16.77-.67.29-1.43.29-.73 0-1.39-.29-.65-.28-1.14-.77-.48-.48-.77-1.12-.29-.65-.29-1.38 0-.76.29-1.43t.77-1.15q.49-.48 1.14-.77.66-.29 1.39-.29.76 0 1.43.29t1.16.77.79 1.15.3 1.43m12.88 30.84q-3.08 0-4.72-1.74-1.65-1.73-1.65-4.79v-13.18h-2.41q-.46 0-.79-.3-.32-.3-.32-.9v-2.25l3.8-.62 1.19-6.44q.12-.46.44-.72.32-.25.83-.25h2.94v7.43h6.3v4.05h-6.3v12.79q0 1.1.54 1.72t1.49.62q.53 0 .88-.13.36-.12.62-.26.27-.14.47-.26.21-.13.42-.13.25 0 .41.13.16.12.35.37l1.7 2.77q-1.24 1.03-2.85 1.56t-3.34.53"/></svg>